# xmcd
#
# Track frame offsets: 
#        150
#        13286
#        28305
#        44809
#        62292
#        74799
#        87361
#        104580
#        120039
#        139844
#        150929
#        170736
#        191673
#        206486
#        226463
#        242667
#        269000
#        294077
#        308704
#        316971
#        330485
#        343719
#
# Disc length: 4787 seconds
#
# Revision: 0
# Processed by: cddbd v1.5.2PL0 Copyright (c) Steve Scherf et al.
# Submitted via: ExactAudioCopy v0.95b3
#
DISCID=4512b116
DTITLE=Laura Nyro   - Selected Recordings - Vol 1 1967 to 1971
DYEAR=1900
DGENRE=
TTITLE0=Wedding Bell Blues
TTITLE1=Billy's Blues
TTITLE2=He's A Runner
TTITLE3=Lazy Susan
TTITLE4=Stoney End
TTITLE5=Lu
TTITLE6=Stoned Soul Picnic
TTITLE7=Timer
TTITLE8=Emmie
TTITLE9=Save The Country (Single Version - Mono)
TTITLE10=You Don't Love Me When I Cry
TTITLE11=Captain For Dark Mornings
TTITLE12=Captain Saint Lucifer
TTITLE13=Time and Love
TTITLE14=Blackpatch
TTITLE15=Been On A Train
TTITLE16=Upstairs By A Chinese Lamp
TTITLE17=Up On The Roof
TTITLE18=I Met Him On A Sunday
TTITLE19=The Bells
TTITLE20=Jimmy Mack
TTITLE21=It's Gonna Take A Miracle
EXTD=
EXTT0=
EXTT1=
EXTT2=
EXTT3=
EXTT4=
EXTT5=
EXTT6=
EXTT7=
EXTT8=
EXTT9=
EXTT10=
EXTT11=
EXTT12=
EXTT13=
EXTT14=
EXTT15=
EXTT16=
EXTT17=
EXTT18=
EXTT19=
EXTT20=
EXTT21=
PLAYORDER=
